<mxfile host="app.diagrams.net" modified="2023-06-08T17:30:44.376Z" agent="Mozilla/5.0 (Windows NT 10.0; Win64; x64) AppleWebKit/537.36 (KHTML, like Gecko) Chrome/114.0.0.0 Safari/537.36 Edg/114.0.1823.41" version="21.3.8" etag="XrmYlbNw1gCAKdH-OuAB" type="github">
  <diagram name="第 1 页" id="K84AoUBEklugW0dfIWDU">
    <mxGraphModel>
      <root>
        <mxCell id="0" />
        <mxCell id="1" parent="0" />
      </root>
    </mxGraphModel>
  </diagram>
</mxfile>
